<?xml version="1.0" encoding="UTF-8"?>
<svg xmlns="http://www.w3.org/2000/svg" width="16" height="16" viewBox="0 0 486.828 486.828">
  <path fill="#000000" transform="translate(-592.76562,-28.964844)" d="m 667.76562,28.964844 c -41.11752,0 -75,33.882476 -75,74.999996 v 336.82813 c 0,41.11753 33.88248,75 75,75 h 336.82618 c 41.1175,0 75,-33.88247 75,-75 V 103.96484 c 0,-41.11752 -33.8825,-74.999996 -75,-74.999996 z m 0,50 h 336.82618 c 14.2824,0 25,10.717587 25,24.999996 v 58.39844 H 642.76562 v -58.39844 c 0,-14.282409 10.71759,-24.999996 25,-24.999996 z m -25,133.398436 h 386.82618 v 228.42969 c 0,14.28242 -10.7176,25 -25,25 H 667.76562 c -14.28241,0 -25,-10.71758 -25,-25 z"/>
</svg>
